<?xml version="1.0" encoding="utf-8"?>
<!-- Generator: Adobe Illustrator 27.2.0, SVG Export Plug-In . SVG Version: 6.00 Build 0)  -->
<svg version="1.1" id="레이어_1" xmlns="http://www.w3.org/2000/svg" xmlns:xlink="http://www.w3.org/1999/xlink" x="0px"
	 y="0px" viewBox="0 0 1080 1080" style="enable-background:new 0 0 1080 1080;" xml:space="preserve">
<style type="text/css">
	.st0{fill:#FFFFFF;}
</style>
<path class="st0" d="M659.6,616.2c-1.4-8.9-4-17.5-7.6-25.8c-11.4-24.6-27.2-45.2-51-59c-36.5-21.6-81.9-21.4-118.1,0.7
	c-16.6,10-30,24.4-38.9,41.7c-2.9,5.9-5.4,12-7.4,18.2c-9.6,30.6-9.3,71.8,8.1,99.8c5.5,9.3,13.8,16.6,23.8,20.8
	c10.1,4.1,21.5,3.2,30.9-2.4c11.6-7.5,13.7-21.8,11.5-34.6c-2.8-16.3-4.8-32.4,1.1-48.3c1.8-5.2,4.8-9.8,8.6-13.7
	c2.4-2.3,5.2-4.2,8.2-5.6c6.3-3.2,13.4-4.3,20.4-3.3c12.1,1.9,22,11.3,27.4,22.3s6.8,23.5,7.4,35.7c2.6,53.3-10.2,108.6-23.8,159.8
	c-1.4,5.3-2.9,10.5-4.3,15.8c-1.2,4.1-3.2,9.2-0.7,13.2c1.2,1.7,2.8,2.9,4.8,3.7c7.9,3.2,14.4-1.7,19.7-7
	c31.2-31.5,51.3-72,65-113.8c5.2-15.5,9.4-31.4,12.5-47.5C661.3,664.8,663.6,639.5,659.6,616.2"/>
<path class="st0" d="M883.4,369.6c0-8-7.1-13.3-14.7-13s-14.9,4.3-22,7C709.2,415.9,554,425.8,409,404.9
	c-24.8-3.6-49.9-8.6-74.9-12.5c-15.6-2.4-31-5.9-46.7-7.1c-13.4-1-30.1-1.5-41,7.8c-14.3,12.3-13.3,35.7-5.2,51.2
	c9.7,18.6,26.8,32.4,44.5,43.1c17.3,10.3,37.8,21.2,58.3,19.9c55.4-3.6,110.6-8.9,165.7-16c93.9-12.2,192.4-23.8,280.6-60.1
	c28.8-11.9,57.3-26.8,82.1-46C877,381.8,883.5,376.2,883.4,369.6"/>
<path class="st0" d="M488.9,322.5c0.7,29.9,25.5,53.5,55.4,52.8c28.9-0.7,52.2-23.9,52.8-52.8c0-4.5-1-8.9-2.9-13
	c-4.7-9.8-9.8-14.6-9.4-26.4c0.7-15.9-19.7-16.1-30.6-16.1c-12,0-24.7,1.7-35.5,7.1c-17.9,9-29.4,27.1-29.9,47.2L488.9,322.5"/>
</svg>
