<svg width="32" height="32" viewBox="0 0 32 32" fill="none" xmlns="http://www.w3.org/2000/svg"><path d="M26.2943 8.26677L25.5872 8.97388L25.5872 8.97388L26.2943 8.26677ZM26.2943 16.5023L25.5872 15.7952H25.5872L26.2943 16.5023ZM18.0588 8.26677L17.3517 7.55966V7.55966L18.0588 8.26677ZM15.9997 10.3259L15.2926 11.033L15.9997 11.7402L16.7068 11.033L15.9997 10.3259ZM13.9411 8.2674L13.234 8.97451L13.9411 8.2674ZM5.70563 8.2674L6.41274 8.9745L5.70563 8.2674ZM5.70563 16.5029L6.41273 15.7958L5.70563 16.5029ZM15.9283 26.7256L15.2212 27.4327L15.9283 26.7256ZM16.0717 26.7256L15.3646 26.0185L15.3646 26.0185L16.0717 26.7256ZM24.2355 18.5618L24.9426 19.2689L25.6497 18.5618L24.9426 17.8547L24.2355 18.5618ZM24.2352 18.5614L23.528 17.8543L22.8209 18.5614L23.528 19.2685L24.2352 18.5614ZM25.5872 8.97388C27.4709 10.8575 27.4709 13.9115 25.5872 15.7952L27.0014 17.2094C29.6661 14.5447 29.6661 10.2244 27.0014 7.55966L25.5872 8.97388ZM18.7659 8.97387C20.6496 7.09023 23.7036 7.09023 25.5872 8.97388L27.0014 7.55966C24.3367 4.89497 20.0164 4.89497 17.3517 7.55966L18.7659 8.97387ZM16.7068 11.033L18.7659 8.97387L17.3517 7.55966L15.2926 9.61883L16.7068 11.033ZM13.234 8.97451L15.2926 11.033L16.7068 9.61883L14.6482 7.56029L13.234 8.97451ZM6.41274 8.9745C8.29638 7.09086 11.3504 7.09086 13.234 8.97451L14.6482 7.56029C11.9835 4.8956 7.66322 4.8956 4.99852 7.56029L6.41274 8.9745ZM6.41273 15.7958C4.52909 13.9121 4.52909 10.8582 6.41274 8.9745L4.99852 7.56029C2.33383 10.225 2.33382 14.5453 4.99852 17.21L6.41273 15.7958ZM16.6354 26.0185L6.41273 15.7958L4.99852 17.21L15.2212 27.4327L16.6354 26.0185ZM15.3646 26.0185C15.7155 25.6675 16.2845 25.6675 16.6354 26.0185L15.2212 27.4327C15.6513 27.8628 16.3487 27.8628 16.7788 27.4327L15.3646 26.0185ZM23.5284 17.8547L15.3646 26.0185L16.7788 27.4327L24.9426 19.2689L23.5284 17.8547ZM23.528 19.2685L23.5284 19.2689L24.9426 17.8547L24.9423 17.8543L23.528 19.2685ZM25.5872 15.7952L23.528 17.8543L24.9423 19.2685L27.0014 17.2094L25.5872 15.7952Z" fill="black"></path></svg>