<?xml version="1.0" encoding="utf-8"?>
<!-- Generator: Adobe Illustrator 27.2.0, SVG Export Plug-In . SVG Version: 6.00 Build 0)  -->
<svg version="1.1" id="레이어_1" xmlns="http://www.w3.org/2000/svg" xmlns:xlink="http://www.w3.org/1999/xlink" x="0px"
	 y="0px" viewBox="0 0 1080 1080" style="enable-background:new 0 0 1080 1080;" xml:space="preserve">
<style type="text/css">
	.st0{fill:#FFFFFF;}
</style>
<polygon class="st0" points="315.8,446.6 270.2,446.6 198.4,530.3 198.4,446.6 162,446.6 162,629.2 198.4,629.2 198.4,545.2 
	272.6,629.2 318.1,629.2 237.3,537.9 "/>
<polygon class="st0" points="918,629.2 863.4,566 916.4,502.9 877.2,502.9 831,557.5 831,446.6 794.6,446.6 794.6,629.2 831,629.2 
	831,574.4 878,629.2 "/>
<path class="st0" d="M405.2,498.4c-15.3,0-28.3,6.5-39,15.6v-67.5h-36.3v120.3c0,36.2,24,66.5,69,66.5c40.5,0,69.1-28,69.1-67.2
	C467.9,529,443.4,498.4,405.2,498.4z M398.8,600.4c-18.7,0-34-14.9-34.6-33.6v-1c0-19.1,15.5-34.6,34.6-34.6s34.6,15.5,34.6,34.6
	S417.8,600.4,398.8,600.4L398.8,600.4L398.8,600.4z"/>
<path class="st0" d="M724.8,498.4c-15.5-0.2-30.5,5.5-41.9,16v-12h-36.3v126.8h36.3v-71.1c0.5-14.8,12.9-26.4,27.7-25.9
	c14.1,0.5,25.4,11.8,25.9,25.9v71.1h36.6v-82.7C772.9,519.9,751.4,498.5,724.8,498.4z"/>
<path class="st0" d="M554.9,498.5c-41,0-69.8,28.1-69.8,67.2c0,37.1,24.8,67.7,63.3,67.7c17-0.3,33-8.3,43.4-21.8v17.6h32.9v-63.5
	h-0.3l0.3-0.7C624.7,528.8,600.5,498.5,554.9,498.5z M555.6,600.2c-19.1,0-34.6-15.5-34.6-34.6s15.5-34.6,34.6-34.6
	s34.6,15.5,34.6,34.6l0,0C590.2,584.8,574.7,600.2,555.6,600.2z"/>
</svg>
