<?xml version="1.0" encoding="utf-8"?>
<!-- Generator: Adobe Illustrator 27.2.0, SVG Export Plug-In . SVG Version: 6.00 Build 0)  -->
<svg version="1.1" id="레이어_1" xmlns="http://www.w3.org/2000/svg" xmlns:xlink="http://www.w3.org/1999/xlink" x="0px"
	 y="0px" viewBox="0 0 1080 1080" style="enable-background:new 0 0 1080 1080;" xml:space="preserve">
<style type="text/css">
	.st0{fill:#FFFFFF;}
</style>
<path class="st0" d="M402.1,555.3c0.7,47.7,3.1,102.1,11.5,145.3c0,0.3,0.1,0.6,0.3,0.8c6.6,9.8,13.6,48.5,19,60.6
	c0.3,0.5,0.7,0.9,1.2,1.2c3.8,2.6,16.8,7.8,25.3,6.7c0.5,0,1-0.4,1.1-0.9l0,0c1.9-10,0.7-19.4-0.5-37.8c-3-45.2-6.3-117.2-5.8-160.8
	c35.4,19.7,168.2,114.9,237.4,134.6c1.5,0.4,3.2,0.1,4.3-1c3.7-3.8,6-4.5,10.2-6.3c1.9-0.9,4.2-6,3.7-11.8
	c43.8-1.6,104.7-18.5,136.6-58.5c22-27.6,21.6-66,7.9-78.9c-1.3-1.1-3.9-1.8-5.7-3.7c-20.9-20.8-49.3-26.4-79.7-24.6
	c-30.9,1.8-55.7,14.8-74.9,26.9c0,0-0.2,0-0.2-0.1c-1.7-29.5,10.2-67.1-0.2-91.4c-0.3-0.9-1.2-1.4-2.2-1.3
	c-9.2,0.1-27.2,6.6-31.1,10c-0.9,0.8-1.5,1.9-1.4,3.1c-0.1,6.9-2.2,42.8-5.7,46.2c-0.6,0.7-0.4,1.3-0.6,2.8
	c-4.1,43.2-4,79.9-0.3,110.9c0.1,1,4.3,5.4,9.3,7.2c3.4,1.2,17.2-1.6,28.9-6c1.5-0.5,3-0.7,4.6-0.8c1.2,0,1.7-1.5,1.6-2.9
	c-0.2-3.4-0.1-6.8,0.3-10.2c6.8-27.4,34.7-63.1,70-68.5c22.5-3.5,37.3,4.3,47.5,15.5c2.7,2.9,5.9,25-6.9,48.8
	c-9.2,17.3-27.8,32.4-52.9,41.9c-26.4,10-52.9,12.1-80.4,11.1c-26.8-16.2-71.7-53.6-111.2-68.5c-6.2-2.4-17.4-12.2-22.4-16.2
	c-19.1-15.4-60.1-42.1-84.4-58.4c-0.2-0.2-0.2-0.3-0.2-0.7c-0.3-1.7-0.2-3.5,0.3-5.1c0.3-1,1-1.7,1.9-2.2c8.5-5.7,44.5-25.3,47.5-30
	c1.2-1.1,2.6-2,4-2.7c54-32.8,148.9-77.1,190.4-120c0.5-0.7,0.7-1.6,0.6-2.5c0-1.8,0.3-3.5,0.8-5.2c1.8-5.2,1.9-10.7,0.4-16
	c-0.2-0.8-0.8-1.5-1.6-1.8c-22.1-2.2-51.5,11.3-78.9,36.9c-8.1,7.6-14.6,10.4-21.8,14.5c-31,17.6-104.4,63.2-139.4,85.7
	c-0.2,0.2-0.6,0.2-0.8-0.1c-0.1-0.1-0.1-0.2-0.1-0.4c2.2-41.2,10.1-99.9,18.8-145.2c0.2-1.1,0-2.3-0.6-3.3
	c-2.9-4.3-4.5-9.4-5.6-10.5c-0.1-0.2-0.3-0.3-0.5-0.4c-5.9-3-10.7-1.9-15.1-0.9s-9.8,4.5-16.8,6.2c-0.8,0.1-1.5,0.7-1.8,1.5
	c-16.8,41.6-31.9,112.9-34.8,168.1c0,0.2,0,0.6-0.4,0.3c-27.4-17.5-55.9-33.3-85.2-47.4c-0.4-0.2-0.9-0.3-1.3-0.4
	c-6.5-0.8-14-5.5-20.9-9.7c-7.7-4.6-22.8-15.3-32.2-20.8c-0.9-0.7-2.1-0.9-3.2-0.8c-7.6,1.3-23.3,11.8-27.6,18.6
	c-1.4,2.2,1.5,6.8,1.1,9.7c-0.1,0.3,0,0.6,0.3,0.9c8.8,9,31.9,25,56.6,38.2c28.5,15.4,57.5,30,69.5,37.6c0.3,0.2,0.5,0.5,0.7,0.8
	c1.8,2,4,3.7,6.5,4.9c5.7,3.4,6.9,3.8,8.5,5.2c0.8,0.7,0.4,1.5-0.4,2.2c-30.2,21-90.1,59.9-118.7,79.1c-7.7,4.2-15.7,8-23.8,11.3
	c-7.3,3-13.8,7.8-16.4,13.3c-0.5,1,0.2,1.6,0.9,1.8c4.6,1.3,5.7,4.5,8.9,5.8c1.2,0.3,2.4,0.5,3.6,0.4c5.9,0.2,16.4-3.8,35.2-12
	c21.4-9.5,88-50.4,96.1-55.1c0.2-0.1,0.3-0.2,0.5-0.2c3.9,0,7.5-2.9,11-5.6c5.9-4.3,12.3-8.1,18.9-11.3l10.8-6L402.1,555.3z"/>
</svg>
