<?xml version="1.0" encoding="utf-8"?>
<!-- Generator: Adobe Illustrator 27.2.0, SVG Export Plug-In . SVG Version: 6.00 Build 0)  -->
<svg version="1.1" id="_레이어_2" xmlns="http://www.w3.org/2000/svg" xmlns:xlink="http://www.w3.org/1999/xlink" x="0px"
	 y="0px" viewBox="0 0 148.7 57.4" style="enable-background:new 0 0 148.7 57.4;" xml:space="preserve">
<style type="text/css">
	.st0{fill:#FFFFFF;}
	.st1{fill:#FF597B;}
</style>
<g>
	<path class="st0" d="M38.4,22.9c0.1,2.3,0.2,5.8,0.9,9.1c0.5,2.2,1.1,4.4,2.5,6.2c1.5,2,3.6,2.7,6.1,2.6c3.7-0.2,5.9-2.3,7.5-5.3
		c1-1.9,1.5-4,1.7-6.2c0.1-1,0.1-2.1,0.2-3.1c0-0.3,0.1-0.6,0.4-0.5c0.2,0,0.4,0.4,0.4,0.5c-0.1,4-0.2,8.1-0.3,12.1
		c0,0.8,0,1.5,0,2.3c0,0.1,0,0.3,0,0.4c-0.1,0.1-0.2,0.3-0.3,0.3c-0.1,0-0.3-0.2-0.3-0.3c0-0.3,0-0.7,0-1c0-1.1-0.6-1.5-1.6-1
		c-1.1,0.5-2.1,1.2-3.2,1.6c-5,2.1-9.6,1.2-13.7-2.3c-3.1-2.7-4.8-6.2-5.8-10c-0.8-3.1-1-6.3-0.8-9.5c0.3-4.3,1.4-8.4,3.9-12.1
		c2-2.9,4.6-5.2,8.1-6.1c3.3-0.9,6.4-0.4,9.4,1.2c0.7,0.4,1.4,0.7,2,1c0.2,0.1,0.5,0.1,0.7,0.1c0.4,0,0.7-0.2,0.7-0.7
		c0-0.4,0-0.8,0-1.2c0-0.2,0.2-0.4,0.4-0.5c0.1,0.2,0.3,0.4,0.3,0.6c0.1,2,0.2,4.1,0.2,6.1c0.1,2.5,0.2,4.9,0.3,7.4
		c0,0.3-0.1,0.6-0.4,0.7c-0.4,0-0.4-0.3-0.5-0.6c-0.2-1.4-0.2-2.9-0.5-4.2c-0.6-3-1.8-5.7-4.2-7.7c-1.5-1.2-3.3-1.8-5.3-1.8
		c-3.4,0.1-5.4,2-6.7,4.9c-0.9,2.1-1.3,4.2-1.6,6.4C38.4,15.3,38.3,18.5,38.4,22.9L38.4,22.9z"/>
	<path class="st0" d="M83.3,27.7c0.2,0,0.3,0.1,0.5,0.1c2.7,0.3,4.5,2,5,4.5c0.2,0.9,0.1,1.9,0,2.9c-0.1,1.2-0.3,2.3-0.3,3.5
		c0,1.1,0.5,1.8,1.5,1.9c0.8,0.1,1.4-0.2,1.9-0.8c0.1-0.1,0.2-0.2,0.4-0.4c0.2,0.5-0.1,0.8-0.3,1c-0.6,0.6-1.4,0.8-2.2,0.8
		c-2.5,0.1-4.1-1.2-4.6-3.8c-0.3-1.4-0.3-2.9-0.4-4.3c-0.1-0.7-0.1-1.4-0.2-2.1c-0.2-1.5-1.3-2.9-3.2-3c-1.2-0.1-2.4,0-3.7,0
		c0,0.2,0,0.3,0,0.5c0,3.7,0,7.4,0,11.1c0,0.6,0,0.6,0.7,0.6c0.7,0,1.4,0,2.2,0c0.2,0,0.3,0.2,0.5,0.3c-0.2,0.1-0.3,0.2-0.5,0.2
		c-1.3,0-2.7-0.1-4.1-0.1c-1.7,0-3.3,0-5,0.1c-0.2,0-0.6,0.1-0.5-0.3c0-0.1,0.3-0.3,0.5-0.3c0.6,0,1.2,0,1.8,0
		c0.4,0,0.6-0.1,0.6-0.6c0-3,0-5.9,0-8.9c0-5.1,0-10.3,0-15.4c0-0.7,0-0.7-0.7-0.7c-0.6,0-1.2,0-1.8,0c-0.1,0-0.2-0.2-0.4-0.3
		c0.1-0.1,0.2-0.2,0.4-0.2c0.7,0,1.5,0,2.2,0c3.2,0,6.5-0.1,9.7,0c3.1,0,5.5,2.2,6,5.3c0.5,3-0.8,5.9-3.3,7.4
		c-0.6,0.3-1.3,0.4-1.9,0.6c-0.2,0.1-0.3,0.1-0.5,0.2C83.3,27.6,83.3,27.6,83.3,27.7L83.3,27.7z M77.6,27.4c1.1,0,2.1,0,3.1,0
		c1.7,0,2.8-0.8,3.5-2.3c0.6-1.2,0.7-2.5,0.7-3.8c0-1.5-0.1-3.1-0.7-4.5c-0.6-1.3-1.6-2.1-3-2.1c-1-0.1-2-0.1-2.9-0.1
		c-0.6,0-0.7,0.1-0.7,0.7c0,3.9,0,7.7,0,11.6C77.6,27,77.6,27.1,77.6,27.4L77.6,27.4z"/>
	<path class="st0" d="M137.7,27c1.1-0.1,2.1-0.1,3.2-0.3c1.4-0.3,2.2-1.2,2.2-2.7c0-0.2,0-0.5,0-0.7c0-0.2-0.1-0.5,0.3-0.5
		c0.1,0,0.2,0.3,0.2,0.5c0,0.6,0,1.1,0,1.7c0,2,0,4,0,6c0,0.2,0,0.4,0,0.6c-0.4,0.1-0.5,0-0.5-0.3c0-0.5,0-0.9,0-1.4
		c-0.2-1.5-1-2.3-2.6-2.5c-0.9-0.1-1.8-0.1-2.8-0.2c0,0.2,0,0.4,0,0.5c0,3.8,0,7.5,0,11.3c0,0.8,0.1,0.9,0.9,0.9c1.7,0,3.3,0,5-0.1
		c1.9-0.1,3.2-1,3.9-2.7c0.4-1,0.5-2,0.7-3.1c0.1-0.6,0-1.2,0.1-1.8c0-0.1,0.2-0.2,0.3-0.4c0.1,0.1,0.2,0.2,0.2,0.4
		c0,2.2-0.1,4.3-0.1,6.4c0,0.5,0,1,0,1.5c0,0.3-0.1,0.5-0.5,0.5c-3.4-0.1-6.7-0.1-10.1-0.2c-2.1,0-4.2,0-6.3,0
		c-0.2,0-0.7,0.2-0.7-0.2c0-0.5,0.4-0.3,0.7-0.3c0.6,0,1.1,0,1.6,0c0.4,0,0.5-0.2,0.5-0.6c0-1.2,0-2.4,0-3.6c0-6.9,0-13.8,0-20.7
		c0-0.7,0-0.8-0.8-0.8c-0.5,0-1,0-1.6,0c-0.2,0-0.6,0.1-0.6-0.3c0-0.1,0.4-0.2,0.5-0.2c1.5,0,3,0.1,4.5,0.1c2.6,0,5.3-0.1,7.9-0.1
		c1.1,0,2.2,0,3.2-0.1c0.3,0,0.4,0.1,0.4,0.4c0.1,2.4,0.2,4.8,0.3,7.2c0,0.1,0,0.2,0,0.3c0,0.1-0.1,0.2-0.2,0.3
		c-0.1-0.1-0.2-0.2-0.3-0.3c-0.1-0.6-0.1-1.3-0.2-1.9c-0.2-1.5-0.6-2.8-1.6-3.9c-0.9-0.9-2-1.3-3.2-1.3c-1.4-0.1-2.7-0.1-4.1-0.1
		c-0.4,0-0.6,0.1-0.6,0.5c0,3.9,0,7.7,0,11.6C137.7,26.8,137.7,26.9,137.7,27L137.7,27z"/>
	<path class="st0" d="M115.5,27.4c0-4,0-8.1,0-12.1c0-0.7,0-0.7-0.7-0.7c-0.6,0-1.2,0-1.8,0c-0.1,0-0.3-0.2-0.4-0.2
		c0.1-0.1,0.2-0.2,0.4-0.2c3.1,0,6.2,0,9.3,0c0.1,0,0.3,0.2,0.4,0.2c-0.1,0.1-0.3,0.2-0.4,0.2c-0.8,0-1.5,0-2.3,0
		c-0.4,0-0.6,0.1-0.6,0.6c0,8.1,0,16.2,0,24.2c0,0.6,0.2,0.8,0.8,0.8c1.4,0,2.9,0,4.3-0.1c1.9-0.1,3.3-1.3,4.1-3.3
		c0.5-1.4,0.5-2.9,0.6-4.3c0-0.2,0-0.4,0.1-0.6c0-0.1,0.2-0.2,0.3-0.3c0.1,0.1,0.2,0.2,0.2,0.3c0,0.5,0,0.9,0,1.3
		c-0.1,2.3-0.2,4.7-0.3,7c0,0.5-0.2,0.6-0.6,0.5c-3.3-0.1-6.7-0.1-10-0.2c-1.9,0-3.8,0-5.7,0.1c-0.1,0-0.3,0-0.4-0.1
		c-0.1,0-0.1-0.2-0.1-0.3c0.1-0.1,0.2-0.2,0.4-0.2c0.6,0,1.3,0,1.9,0c0.5,0,0.6-0.1,0.6-0.6C115.5,35.5,115.5,31.4,115.5,27.4
		L115.5,27.4z"/>
	<path class="st0" d="M109.7,41c0-0.3,0-0.5,0-0.8c0.1-1-0.6-1-1.2-0.7c-0.7,0.4-1.5,0.8-2.2,1.1c-3.5,1.5-7.5,0.2-9.9-2.6
		c-1.8-2.1-2.7-4.5-3.1-7.1c-0.3-1.8-0.4-3.6-0.2-5.4c0.4-3.9,1.7-7.4,4.8-10c2.7-2.2,6.2-2.6,9.4-0.9c0.4,0.2,0.8,0.5,1.3,0.6
		c0.8,0.3,1.1,0.1,1.2-0.8c0-0.2,0.1-0.5,0.2-0.7c0.1,0.2,0.3,0.5,0.3,0.7c0.1,2.3,0.2,4.5,0.2,6.8c0,0.6,0.1,1.2,0.1,1.8
		c0,0.2-0.2,0.3-0.3,0.5c-0.1-0.1-0.2-0.3-0.2-0.5c-0.1-2-0.4-4-1.4-5.8c-0.8-1.5-1.9-2.6-3.6-3.1c-2.7-0.7-5,0.3-6.2,3.3
		c-0.6,1.6-1,3.2-1.1,4.9c-0.1,2.2-0.2,4.4-0.2,6.6c0,2.6,0.2,5.2,1.1,7.7c0.4,1.1,0.9,2.2,1.8,2.9c2.1,1.7,5.1,1.4,7-0.7
		c1.4-1.5,2-3.3,2.3-5.2c0.1-0.9,0.1-1.9,0.2-2.8c0-0.2,0.2-0.3,0.3-0.5c0.1,0.2,0.3,0.3,0.3,0.5c-0.1,3.2-0.2,6.4-0.3,9.5
		c0,0.1-0.1,0.3-0.2,0.4C109.9,41,109.8,41,109.7,41L109.7,41z"/>
	<path class="st0" d="M66.5,27.4c0,4,0,7.9,0,11.9c0,0.5,0.3,0.8,0.8,0.8c0.5,0,1,0,1.6,0c0.2,0,0.3,0.2,0.5,0.3
		c-0.2,0.1-0.3,0.3-0.5,0.3c-2.9,0-5.8,0-8.7,0c-0.2,0-0.3-0.2-0.5-0.2c0.2-0.1,0.3-0.3,0.5-0.3c0.7,0,1.3,0,2,0
		c0.4,0,0.5-0.2,0.5-0.5c0-0.1,0-0.2,0-0.3c0-8,0-16,0-24c0-0.8,0-0.8-0.8-0.8c-0.6,0-1.1,0-1.7,0c-0.1,0-0.3-0.2-0.4-0.2
		c0.1-0.1,0.3-0.2,0.4-0.2c3,0,5.9,0,8.9,0c0.1,0,0.3,0.1,0.4,0.2c-0.1,0.1-0.3,0.3-0.4,0.3c-0.6,0-1.3,0-1.9,0
		c-0.4,0-0.6,0.1-0.6,0.6C66.5,19.3,66.5,23.4,66.5,27.4L66.5,27.4z"/>
</g>
<g id="_레이어_1-2">
	<path class="st1" d="M16.8,35.8v18.3c0,0.8,0,0.8,0.9,0.8h3.2c0.2,0,0.4,0,0.5,0.1c0.1,0.1,0.3,0.3,0.3,0.5c0,0.1-0.2,0.3-0.4,0.3
		c-0.1,0.1-0.3,0-0.5,0c-2.3,0-4.6-0.1-6.9-0.1S9,55.9,6.7,55.9c-0.3,0-0.8,0.1-0.8-0.5C5.9,55,6.3,55,6.7,55H10
		c0.6,0,0.7-0.1,0.7-0.7V17.7c0-0.2,0-0.4,0-0.6c0-0.1-0.2-0.4-0.3-0.4c-1.8,0.1-3.6-0.1-5.3,0.6c-1.6,0.7-2.6,2-3.2,3.6
		c-0.6,1.6-0.8,3.3-0.9,5c0,0.5-0.1,1-0.1,1.5c0,0.3,0,0.7-0.5,0.7S0,27.8,0,27.5c0-1.8,0.1-3.6,0.1-5.4c0.1-1.9,0.1-3.7,0.2-5.6
		c0.1-0.7,0.1-0.8,0.8-0.8c3.3,0,6.6,0.1,9.9,0.1c4.6,0,9.2,0,13.8,0c0.6,0,1.3,0,1.9-0.1c0.5,0,0.7,0.2,0.7,0.7c0,1,0,2,0.1,3
		c0.1,2.6,0.1,5.2,0.2,7.8c0,0.2,0,0.3,0,0.5c0,0.3-0.1,0.5-0.5,0.6c-0.4,0-0.5-0.2-0.5-0.5c0-0.3,0-0.6,0-0.9c-0.1-2-0.3-4.1-1-6
		c-1-2.6-2.9-3.9-5.8-4c-0.7,0-1.4-0.1-2.1-0.1c-0.8,0-0.9,0-0.9,0.8L16.8,35.8C16.7,35.8,16.7,35.8,16.8,35.8z"/>
	<path class="st1" d="M43.2,51.1c0.4-1.3,0.7-2.7,1.1-4c1.3-4.9,2.7-9.8,4.1-14.7c0-0.2,0.1-0.4,0.1-0.6c0.1-0.6-0.3-1-0.8-1
		c-0.4,0-0.8,0-1.2,0c-0.2,0-0.3-0.2-0.4-0.3c0.2-0.1,0.3-0.3,0.4-0.3c1.7,0,3.4,0,5.2,0c0.2,0,0.3,0.2,0.5,0.3
		c-0.2,0.1-0.3,0.3-0.5,0.3c-0.3,0-0.6,0-0.9,0c-0.9,0-1.3,0.3-1.6,1.2c-0.5,1.9-1.1,3.9-1.6,5.8c-1.8,6.2-3.5,12.5-5.2,18.7
		c0,0.1,0,0.3-0.1,0.4c-0.1,0.2-0.3,0.4-0.5,0.4c-0.2,0-0.4-0.2-0.5-0.4c-0.2-0.4-0.3-0.9-0.4-1.4c-1.1-3.6-2.1-7.2-3.2-10.8
		c0-0.1-0.1-0.3-0.2-0.5c-0.4,1.2-0.7,2.3-1,3.3c-0.9,3-1.8,6-2.7,9c0,0.1,0,0.2-0.1,0.3c-0.2,0.2-0.4,0.5-0.5,0.5
		c-0.2,0-0.5-0.3-0.6-0.5c-0.4-1.2-0.8-2.5-1.1-3.7c-2.1-7.2-4.2-14.4-6.3-21.5c-0.1-0.5-0.4-0.8-0.9-0.7c-0.4,0-0.8,0-1.1,0
		c-0.2,0-0.3-0.2-0.5-0.3c0.2-0.1,0.3-0.3,0.5-0.3c1.1,0,2.1,0,3.2,0c2.9,0,5.8,0.1,8.8,0.1c2.7,0,5.4-0.1,8.2-0.1h0.4
		c0.2,0,0.6,0,0.5,0.3c0,0.1-0.4,0.3-0.6,0.3c-1.2,0.1-1.5,0.2-1.8,1.4c-0.6,2.1-1.2,4.2-1.8,6.2c-0.1,0.4-0.1,0.8,0,1.2
		c1,3.7,2.1,7.4,3.2,11.1c0,0.1,0.1,0.2,0.1,0.4L43.2,51.1L43.2,51.1z M34.6,51.3c0.1-0.2,0.1-0.2,0.1-0.3c0.7-2.5,1.5-5.1,2.2-7.6
		c0-0.2,0.1-0.4,0-0.5c-1.1-3.8-2.2-7.7-3.3-11.5c-0.1-0.4-0.3-0.5-0.7-0.5c-1,0-2,0-3,0c-0.8,0-1.1,0.4-0.9,1.2
		c1.1,3.9,2.2,7.9,3.4,11.8C33.2,46.2,33.9,48.7,34.6,51.3L34.6,51.3L34.6,51.3z M39.3,37.9c0.2-0.9,0.5-1.6,0.7-2.4
		c0.3-1.2,0.7-2.3,1-3.5c0.2-0.8-0.1-1.2-0.9-1.2h-2c-0.6,0-0.7,0.1-0.5,0.7c0.5,1.9,1.1,3.9,1.6,5.8C39.2,37.5,39.2,37.6,39.3,37.9
		L39.3,37.9L39.3,37.9z"/>
	<path class="st1" d="M52.2,43.7c0-3.6,0.7-6.8,2.6-9.6c1.7-2.5,4-4,7-4.4c2.8-0.3,5.4,0.5,7.5,2.5c2.2,2.1,3.3,4.7,3.8,7.6
		c0.7,3.8,0.4,7.5-1.1,11.1c-1.3,3-3.4,5.2-6.7,6.1c-4.2,1.1-8.3-0.7-10.7-4.5c-1.3-2.2-2-4.6-2.2-7.1
		C52.3,44.8,52.2,44.1,52.2,43.7L52.2,43.7z M56.6,43.4c0.1,1.8,0.1,3.5,0.3,5.2c0.1,1.7,0.5,3.4,1.1,5c0.8,2,2.2,3.2,4.4,3.3
		c1.6,0.1,3.2-0.2,4.2-1.6c0.5-0.7,1-1.5,1.3-2.3c0.9-2.5,1.1-5.2,1.1-7.8c0-2.4-0.1-4.8-0.3-7.1c-0.1-1.7-0.6-3.4-1.3-5
		c-1.8-3.7-6.6-3.3-8.3-1.2c-0.7,0.9-1.2,1.9-1.5,3C56.7,37.6,56.6,40.5,56.6,43.4L56.6,43.4L56.6,43.4z"/>
	<path class="st0" d="M117.7,53.8h-2.7c0,0,0-0.1,0-0.1c0.3,0,0.6-0.1,0.9-0.1c-0.2-0.8-0.4-1.6-0.7-2.4c-0.1-0.3-1.9-0.3-2,0
		c-0.2,0.7-0.4,1.4-0.6,2.1c0,0.1,0.2,0.3,0.3,0.4c0.1,0.1,0.3,0,0.5,0.1v0.1h-6.8c0,0,0-0.1-0.1-0.1c0,0,0.1-0.1,0.1-0.1
		c0.7,0.1,0.7-0.4,0.7-0.9c0-2,0-4,0-6c0-0.5,0-0.8-0.6-0.7c-0.1,0-0.1,0-0.3-0.2h3c0,0,0,0.1,0,0.1c-0.2,0-0.3,0.1-0.5,0.1
		c-0.3,0-0.4,0.1-0.4,0.4v6.8c0,0.3,0.1,0.4,0.4,0.4c1.8,0,2.2-0.3,2.4-2.1c0-0.1,0-0.2,0.1-0.4h0.1c0,0.2,0,0.4,0,0.6
		c0,0.5-0.1,1-0.1,1.5c0,0.1,0.1,0.3,0.2,0.4c0.2-0.1,0.3-0.2,0.5-0.3c0.1-0.1,0.1-0.3,0.2-0.5c0.7-2.2,1.3-4.4,2-6.6
		c0.1-0.2,0.2-0.3,0.3-0.7c0.1,0.3,0.2,0.5,0.3,0.6c0.6,2.1,1.3,4.3,1.9,6.4c0.1,0.5,0.1,1.1,1,1C117.7,53.6,117.7,53.7,117.7,53.8
		L117.7,53.8L117.7,53.8z M114.2,47.8c0,0-0.1,0-0.1,0c-0.3,0.9-0.5,1.8-0.8,2.8c0.6,0,1,0,1.5,0c0.1,0,0.2-0.2,0.2-0.3
		C114.7,49.5,114.4,48.6,114.2,47.8L114.2,47.8L114.2,47.8z"/>
	<path class="st0" d="M87.1,53.8h-2.7c0,0,0-0.1,0-0.1c0.1,0,0.2-0.1,0.3-0.1c0.5-0.2,0.5-0.2,0.5-0.6c0-2,0-4,0-6
		c0-0.6-0.2-1-0.8-1.2h2.8C87.1,45.9,87,46,86.9,46c-0.5,0-0.6,0.2-0.6,0.7c0,0.8,0,1.7,0,2.5c0,0.3,0.3,0.5,0.4,0.4
		c0.7,0,1.3,0,1.9,0c0.3,0,0.5-0.1,0.5-0.5c0-0.9,0-1.7,0-2.6c0-0.4-0.1-0.7-0.5-0.6c-0.1,0-0.2,0-0.2-0.2h2.7c0,0,0,0.1-0.1,0.1
		c-0.7,0-0.7,0.4-0.7,0.9c0,2,0,4,0,6c0,0.5,0,0.8,0.6,0.8c0.1,0,0.1,0.1,0.3,0.2h-2.9c0,0,0,0,0-0.1c0.1,0,0.2-0.1,0.3-0.1
		c0.4,0,0.5-0.2,0.5-0.6c0-0.9,0-1.8,0-2.7c0-0.4-0.1-0.6-0.5-0.6c-0.6,0-1.2,0-1.8,0c-0.4,0-0.5,0.2-0.5,0.6c0,0.8,0,1.7,0,2.5
		c0,0.4,0.1,0.7,0.6,0.7C87,53.6,87,53.6,87.1,53.8C87.1,53.7,87.1,53.7,87.1,53.8L87.1,53.8L87.1,53.8z"/>
	<path class="st0" d="M96.7,48.1c-0.1-0.3-0.1-0.6-0.2-0.9C96.3,46.4,95.9,46,95,46c-0.8,0-1.3,0.4-1.3,1.2c0,0.7,0,1.3,0,2
		c0,0.3,0.1,0.5,0.5,0.4c0.8-0.1,0.8-0.1,1.3-1.1v2.6c-0.2-0.4-0.3-0.8-0.6-1c-0.3-0.2-0.7-0.2-1.2-0.3v3.3c0,0.3,0.1,0.5,0.4,0.5
		c0.4,0,0.9,0,1.3,0c0.8,0,1.2-0.6,1.3-1.6c0-0.2,0-0.5,0.2-0.7c0,0.8,0,1.6,0,2.3c0,0.1-0.2,0.2-0.3,0.2c-1.6,0-3.2,0-4.8,0
		c0,0-0.1,0-0.1-0.1c0.1,0,0.1-0.1,0.2-0.1c0.5,0.1,0.6-0.2,0.6-0.7c0-2.1,0-4.1,0-6.2c0-0.5-0.1-0.8-0.7-0.8c0,0-0.1,0-0.2-0.1
		c0.2,0,0.3-0.1,0.5-0.1c1.3,0,2.7,0,4.1,0c0.4,0,0.6,0.1,0.6,0.5c0,0.5,0,1,0.1,1.5c0,0.1-0.1,0.2-0.1,0.3L96.7,48.1L96.7,48.1
		L96.7,48.1z"/>
	<path class="st0" d="M132.5,48.5V51h-0.1c0-0.1-0.1-0.2-0.1-0.2c-0.1-0.7-0.6-1.1-1.3-0.9c-0.1,0-0.2,0.2-0.2,0.3c0,1,0,2,0,3
		c0,0.3,0.1,0.4,0.4,0.4c0.3,0,0.7,0,1,0c0.9,0,1.4-0.4,1.5-1.3c0.1-0.3,0.1-0.7,0.2-1c0,0.1,0.1,0.2,0.1,0.3c0,0.6,0,1.3-0.1,1.9
		c0,0.1-0.2,0.3-0.4,0.3c-1.6,0-3.1,0-4.6,0c-0.1,0-0.1,0-0.3-0.1c0.1-0.1,0.2-0.1,0.2-0.1c0.7,0.1,0.7-0.4,0.7-0.9c0-2,0-4,0-6
		c0-0.5-0.1-0.8-0.6-0.7c0,0-0.1,0-0.1,0c0,0,0,0-0.1-0.1c0.1,0,0.3,0,0.4,0c1.4,0,2.7,0,4.1,0c0.4,0,0.6,0.1,0.6,0.5
		c0,0.6,0,1.2-0.1,1.8c0-0.2-0.1-0.4-0.1-0.6c-0.1-1.1-0.6-1.5-1.7-1.5c-1.3,0-1.1-0.2-1.1,1.1v2.2c0,0.3,0.1,0.4,0.4,0.4
		c0.8,0,1.2-0.3,1.2-1.2C132.4,48.4,132.4,48.4,132.5,48.5L132.5,48.5L132.5,48.5z"/>
	<path class="st0" d="M103.4,50.7h2.6c0,0,0,0.1,0,0.1c-0.7,0-0.7,0.4-0.7,0.9v0.1c-0.1,0.4,0.1,1.1-0.2,1.3
		c-0.5,0.4-1.1,0.7-1.7,0.8c-1.3,0.2-2.4-0.4-3-1.7c-0.8-1.6-0.8-3.3,0.1-4.9c0.7-1.3,2.2-2.3,4-1.3c0.1,0.1,0.2,0.1,0.4,0.2
		c0.1-0.1,0.2-0.2,0.2-0.4h0.1v2.7l-0.1,0c-0.1-0.3-0.1-0.6-0.2-0.8c-0.2-0.4-0.3-0.9-0.5-1.2c-0.7-1-2.2-0.9-2.7,0.2
		c-0.3,0.6-0.4,1.3-0.5,1.9c0,1.2,0.1,2.3,0.2,3.5c0,0.4,0.3,0.8,0.5,1.2c0.3,0.5,0.9,0.6,1.4,0.4c0.5-0.2,0.7-0.6,0.8-1.1
		c0-0.2,0-0.4,0-0.6C104.2,51.3,103.9,50.9,103.4,50.7L103.4,50.7L103.4,50.7z"/>
	<path class="st0" d="M123.5,53.8V51h0.1c0.1,0.3,0.1,0.6,0.1,0.9c0.2,0.8,0.6,1.5,1.5,1.8c0.8,0.3,1.6-0.2,1.8-1.1
		c0.2-1-0.1-1.6-0.9-2c-0.5-0.2-1-0.5-1.5-0.8c-1-0.6-1.4-1.9-0.9-3c0.5-1,1.5-1.5,2.7-1.1c0.2,0.1,0.5,0.2,0.7,0.3
		c0.3,0.1,0.5,0.2,0.7-0.2v2.5c0,0-0.1,0-0.1,0c0-0.2-0.1-0.4-0.1-0.6c-0.2-0.8-0.5-1.5-1.4-1.8c-0.7-0.2-1.3,0-1.5,0.7
		c-0.4,0.9-0.1,1.7,0.8,2.2c0.5,0.2,0.9,0.4,1.4,0.7c1.2,0.6,1.6,1.9,1.1,3.2c-0.4,1.1-1.7,1.6-2.9,1.2c-0.2-0.1-0.5-0.2-0.7-0.3
		C124,53.4,123.7,53.3,123.5,53.8L123.5,53.8L123.5,53.8z"/>
	<path class="st0" d="M122.3,45.8v2.5c0,0-0.1,0-0.1,0c-0.1-0.3-0.1-0.5-0.2-0.8c-0.2-0.8-0.6-1.4-1.4-1.7c-0.7-0.2-1.2,0.1-1.5,0.7
		c-0.3,0.9-0.1,1.7,0.8,2.2c0.5,0.2,0.9,0.4,1.4,0.7c1.2,0.6,1.6,1.9,1.1,3.2c-0.4,1-1.7,1.6-2.9,1.2c-0.3-0.1-0.5-0.2-0.8-0.3
		c-0.3-0.1-0.6-0.2-0.7,0.2v-2.7c0,0,0.1,0,0.1,0c0,0.2,0.1,0.4,0.1,0.6c0.1,1,0.7,1.7,1.5,2c0.9,0.3,1.7-0.3,1.8-1.2
		c0.1-1-0.1-1.5-1.1-1.9c-0.4-0.2-0.9-0.4-1.3-0.7c-0.9-0.5-1.4-1.5-1.1-2.5c0.3-1.3,1.5-2.1,2.8-1.7c0.2,0.1,0.4,0.2,0.6,0.2
		C121.8,46.1,122.1,46.3,122.3,45.8L122.3,45.8L122.3,45.8z"/>
	<path class="st0" d="M135.1,51.1c0,0.2,0.1,0.4,0.1,0.7c0.1,0.9,0.6,1.6,1.5,1.9c0.9,0.3,1.7-0.3,1.9-1.2c0.1-1-0.1-1.5-1-1.9
		c-0.4-0.2-0.9-0.4-1.3-0.6c-1.1-0.6-1.5-1.6-1.1-2.8c0.3-1.1,1.4-1.8,2.6-1.4c0.3,0.1,0.5,0.2,0.7,0.3c0.3,0.1,0.6,0.3,0.8-0.2v2.5
		c0,0-0.1,0-0.1,0c-0.1-0.3-0.1-0.5-0.1-0.8c-0.2-0.8-0.5-1.4-1.3-1.7c-0.7-0.3-1.4,0-1.6,0.8c-0.3,0.9,0,1.7,0.9,2.1
		c0.5,0.2,0.9,0.4,1.4,0.7c1.1,0.6,1.6,1.9,1.1,3.2c-0.4,1-1.6,1.6-2.8,1.3c-0.3-0.1-0.5-0.2-0.8-0.3c-0.3-0.1-0.6-0.3-0.8,0.2v-2.2
		c0-0.2,0-0.3,0-0.4L135.1,51.1L135.1,51.1L135.1,51.1z"/>
	<path class="st0" d="M79.5,53.7c0.2-0.1,0.2-0.1,0.3-0.2c0.5-0.1,0.7-0.4,0.7-0.9c0-2,0-4.1,0-6.2c0-0.5-0.1-0.6-0.6-0.6
		c-0.7,0.1-1.1,0.4-1.2,1.1c-0.1,0.3-0.1,0.7-0.2,1.1h-0.2v-1c0-0.5,0.1-0.8,0.4-1s0.6-0.3,1.1-0.3c1.2,0,2.3,0,3.5,0
		c0.4,0,0.6,0.1,0.6,0.5c0,0.6,0,1.2,0,1.9c0,0-0.1,0-0.1,0c0-0.2-0.1-0.3-0.1-0.5c-0.1-0.3-0.1-0.7-0.2-1.1
		c-0.2-0.5-0.8-0.8-1.4-0.7c-0.1,0-0.3,0.3-0.3,0.5c0,1.3,0,2.6,0,3.9c0,0.8,0,1.7,0,2.5c0,0.5,0.1,0.8,0.6,0.7c0.1,0,0.2,0,0.2,0.2
		L79.5,53.7L79.5,53.7L79.5,53.7z"/>
</g>
</svg>
