<?xml version="1.0" encoding="UTF-8"?>
<svg id="_레이어_2" data-name=" 레이어 2" xmlns="http://www.w3.org/2000/svg" viewBox="0 0 148.69 57.39">
  <defs>
    <style>
      .cls-1 {
        fill: #464d40;
      }

      .cls-2 {
        fill: #ff597b;
      }

      .cls-3 {
        fill: #494949;
      }
    </style>
  </defs>
  <g>
    <path class="cls-3" d="m38.42,22.86c.06,2.31.17,5.75.87,9.14.46,2.21,1.09,4.36,2.52,6.17,1.54,1.95,3.61,2.73,6.06,2.62,3.66-.16,5.89-2.31,7.45-5.35,1-1.94,1.53-4.02,1.7-6.2.08-1.05.13-2.09.18-3.14.02-.3.12-.59.44-.51.18.04.42.36.41.55-.09,4.03-.21,8.06-.33,12.09-.02.77-.02,1.53-.04,2.3,0,.13.03.29-.03.39-.07.12-.22.27-.35.28-.09,0-.26-.19-.28-.32-.04-.35-.02-.7-.02-1.05,0-1.08-.63-1.46-1.6-.97-1.06.54-2.1,1.16-3.2,1.61-5.05,2.07-9.65,1.17-13.74-2.32-3.1-2.65-4.77-6.16-5.76-10.05-.8-3.13-.98-6.32-.78-9.51.27-4.34,1.4-8.44,3.9-12.08,2.02-2.94,4.61-5.15,8.13-6.08,3.28-.87,6.42-.43,9.39,1.2.67.37,1.36.7,2.05,1.01.22.1.48.1.73.1.41,0,.65-.24.67-.65.02-.4-.03-.81.04-1.2.03-.2.24-.36.37-.54.12.19.35.37.35.56.09,2.03.15,4.06.22,6.09.09,2.46.17,4.93.27,7.39.01.34-.06.64-.42.68-.38.04-.43-.27-.46-.57-.15-1.42-.22-2.86-.49-4.25-.58-3-1.78-5.71-4.22-7.71-1.53-1.25-3.3-1.79-5.27-1.76-3.38.07-5.42,1.96-6.7,4.88-.9,2.05-1.33,4.23-1.62,6.44-.42,3.19-.53,6.4-.47,10.75Z"/>
    <path class="cls-3" d="m83.35,27.67c.16.04.32.08.48.1,2.66.33,4.53,1.97,4.99,4.55.17.93.07,1.92,0,2.88-.07,1.18-.28,2.34-.32,3.52-.04,1.13.54,1.82,1.49,1.9.76.06,1.4-.22,1.88-.83.1-.13.23-.25.39-.44.18.52-.09.79-.33,1.03-.62.6-1.41.81-2.23.84-2.52.09-4.05-1.15-4.57-3.85-.27-1.41-.3-2.87-.43-4.31-.06-.71-.07-1.43-.18-2.13-.24-1.55-1.31-2.92-3.2-3.01-1.22-.06-2.45-.01-3.74-.01,0,.16,0,.34,0,.52,0,3.7,0,7.4,0,11.1,0,.63,0,.63.65.63.72,0,1.43-.02,2.15.01.17,0,.33.19.49.29-.17.09-.33.25-.5.25-1.35,0-2.7-.07-4.05-.07-1.67,0-3.33.05-5,.07-.21,0-.55.1-.5-.27.02-.12.33-.27.51-.28.6-.04,1.2-.03,1.8,0,.44.02.58-.14.57-.58-.01-2.97,0-5.93,0-8.9,0-5.13,0-10.26,0-15.4,0-.69-.04-.73-.74-.73-.6,0-1.2.01-1.8-.01-.13,0-.24-.18-.36-.27.12-.08.24-.22.36-.22.73-.02,1.47,0,2.2,0,3.23,0,6.46-.05,9.69,0,3.09.04,5.53,2.22,6.03,5.28.5,3.03-.76,5.88-3.35,7.36-.57.33-1.27.44-1.91.65-.17.06-.34.12-.52.18,0,.05,0,.1.01.16Zm-5.75-.31c1.08,0,2.08-.02,3.08,0,1.7.04,2.83-.78,3.53-2.27.57-1.21.73-2.51.73-3.83,0-1.54-.08-3.06-.74-4.48-.59-1.27-1.55-2.07-2.99-2.15-.98-.05-1.96-.05-2.95-.06-.62,0-.67.06-.67.69,0,3.85,0,7.7,0,11.55,0,.16,0,.32,0,.55Z"/>
    <path class="cls-3" d="m137.73,27.04c1.09-.09,2.14-.1,3.16-.29,1.42-.26,2.16-1.22,2.22-2.66.01-.23,0-.47.01-.7.01-.21-.1-.54.26-.51.09,0,.23.34.23.53.02.56-.02,1.13-.02,1.7,0,2.02.02,4.03.03,6.05,0,.21-.03.42-.04.63-.35.1-.47-.02-.47-.33,0-.45.03-.9-.03-1.35-.18-1.45-1.04-2.28-2.57-2.46-.91-.11-1.82-.13-2.8-.19,0,.19-.03.37-.03.54,0,3.75,0,7.5,0,11.25,0,.76.15.92.89.91,1.66-.03,3.33-.04,4.99-.11,1.87-.07,3.2-1.02,3.85-2.74.37-.98.5-2.05.67-3.09.1-.59.04-1.2.09-1.79.01-.13.18-.25.27-.38.08.12.22.25.22.37-.04,2.15-.1,4.29-.15,6.44-.01.5-.04,1-.03,1.5,0,.34-.11.48-.47.48-3.36-.06-6.73-.13-10.09-.16-2.11-.02-4.23.04-6.34.05-.24,0-.67.2-.67-.25,0-.46.44-.29.7-.3.55-.02,1.1-.03,1.65,0,.43.02.54-.16.54-.56-.02-1.2,0-2.4,0-3.6,0-6.9,0-13.8,0-20.7,0-.72-.03-.75-.77-.75-.52,0-1.03.01-1.55,0-.21,0-.57.13-.55-.27,0-.09.35-.23.54-.23,1.51,0,3.03.06,4.54.06,2.63-.01,5.26-.06,7.89-.09,1.08-.01,2.16-.04,3.24-.07.29,0,.42.08.43.39.09,2.39.2,4.79.3,7.18,0,.1.03.21,0,.3-.04.11-.13.2-.2.29-.09-.09-.25-.18-.26-.28-.09-.64-.12-1.29-.21-1.93-.2-1.45-.56-2.83-1.61-3.94-.87-.92-1.98-1.26-3.19-1.31-1.36-.06-2.73-.05-4.09-.08-.38,0-.64.06-.64.54.01,3.87,0,7.73,0,11.6,0,.08.02.16.03.35Z"/>
    <path class="cls-3" d="m115.52,27.37c0-4.03,0-8.06,0-12.1,0-.67-.04-.71-.7-.71-.6,0-1.2.01-1.8-.01-.14,0-.27-.16-.4-.24.13-.09.25-.25.38-.25,3.1-.01,6.2-.01,9.29,0,.13,0,.26.16.4.25-.14.09-.27.24-.42.25-.77.02-1.53.02-2.3,0-.42,0-.58.15-.58.59.01,8.08,0,16.16,0,24.24,0,.59.19.77.78.76,1.43-.03,2.86-.04,4.29-.11,1.92-.09,3.34-1.27,4.05-3.31.48-1.4.53-2.87.6-4.33,0-.2,0-.41.05-.59.04-.11.2-.18.31-.26.07.11.2.22.21.33.02.45,0,.9,0,1.35-.09,2.35-.2,4.69-.27,7.04-.01.45-.17.56-.59.55-3.33-.07-6.66-.14-9.99-.17-1.9-.02-3.8.05-5.7.07-.14,0-.3-.02-.42-.08-.05-.02-.1-.23-.06-.26.11-.1.25-.22.39-.22.63-.02,1.27-.04,1.9,0,.46.02.61-.13.6-.6-.02-4.07,0-8.13,0-12.2Z"/>
    <path class="cls-3" d="m109.72,40.98c0-.27-.02-.54,0-.81.09-.96-.57-1.04-1.22-.71-.74.38-1.46.79-2.22,1.12-3.52,1.51-7.49.25-9.95-2.63-1.76-2.06-2.69-4.48-3.11-7.12-.28-1.78-.39-3.57-.2-5.37.42-3.89,1.65-7.4,4.78-9.97,2.73-2.24,6.25-2.55,9.38-.88.42.23.85.46,1.29.65.79.33,1.13.09,1.15-.75,0-.23.12-.47.18-.7.09.24.26.47.27.72.09,2.26.15,4.53.23,6.79.02.58.08,1.16.07,1.75,0,.16-.19.32-.29.48-.09-.15-.24-.3-.25-.46-.14-2-.39-3.97-1.41-5.75-.84-1.47-1.94-2.65-3.62-3.09-2.67-.7-5.01.26-6.21,3.26-.64,1.59-.99,3.24-1.08,4.94-.12,2.21-.21,4.42-.2,6.64.02,2.61.22,5.22,1.08,7.72.38,1.11.9,2.16,1.85,2.91,2.12,1.66,5.13,1.38,7.04-.66,1.37-1.46,2.03-3.26,2.32-5.2.14-.92.13-1.86.22-2.78.02-.16.17-.3.26-.46.1.16.29.32.29.48-.08,3.18-.18,6.36-.28,9.54,0,.14-.1.27-.15.4-.08-.01-.15-.03-.23-.04Z"/>
    <path class="cls-3" d="m66.49,27.44c0,3.96,0,7.93,0,11.89q0,.82.85.82c.52,0,1.03-.02,1.55.01.17.01.33.19.5.29-.16.09-.33.26-.49.26-2.91.02-5.83.02-8.74,0-.15,0-.31-.15-.46-.23.15-.11.3-.3.46-.31.65-.04,1.3-.03,1.95,0,.37.01.52-.15.51-.5,0-.1,0-.2,0-.3,0-8,0-15.99,0-23.99,0-.77-.04-.81-.82-.81-.57,0-1.13.01-1.7-.01-.14,0-.27-.16-.4-.24.13-.09.26-.25.38-.25,2.96-.01,5.93-.01,8.89,0,.14,0,.28.14.43.22-.14.1-.28.27-.43.27-.63.03-1.27.03-1.9.01-.42,0-.58.14-.57.59.02,4.1,0,8.2,0,12.29Z"/>
  </g>
  <g id="_레이어_1-2" data-name=" 레이어 1-2">
    <path class="cls-2" d="m16.75,35.82v18.3c0,.8.03.84.86.84h3.25c.16,0,.37-.02.48.07.14.12.29.34.28.51,0,.12-.24.27-.4.34-.14.06-.33.02-.5.02-2.32-.03-4.63-.08-6.95-.08s-4.73.06-7.1.08c-.35,0-.84.09-.82-.45.01-.49.45-.49.83-.49h3.35c.62,0,.69-.07.69-.69V17.71c0-.22.03-.44-.03-.65-.04-.14-.22-.36-.32-.36-1.77.09-3.58-.13-5.28.59-1.64.69-2.57,2-3.19,3.6-.63,1.63-.77,3.33-.87,5.05-.03.52-.07,1.03-.1,1.55-.02.33-.04.68-.47.68s-.46-.35-.46-.69c.04-1.82.08-3.63.12-5.45.05-1.87.11-3.73.16-5.6.05-.68.12-.76.82-.76,3.28.03,6.57.1,9.85.1,4.58,0,9.16-.02,13.75-.04.63,0,1.27-.03,1.9-.06.47-.02.66.2.66.66.01,1.02.05,2.03.08,3.05.06,2.58.13,5.16.19,7.75,0,.17.01.33,0,.5-.02.29-.11.54-.45.56-.36.02-.5-.23-.53-.54-.03-.3-.01-.6-.03-.9-.11-2.03-.26-4.06-1.01-5.98-1.02-2.63-2.93-3.94-5.75-3.97-.72,0-1.43-.07-2.15-.09-.81-.02-.86.04-.86.83v18.3-.02Z"/>
    <path class="cls-2" d="m43.19,51.07c.37-1.33.74-2.66,1.11-3.98,1.35-4.9,2.71-9.79,4.06-14.69.05-.19.11-.39.14-.58.07-.56-.27-.98-.84-1.02-.38-.02-.77.02-1.15-.03-.15-.02-.29-.2-.43-.31.15-.1.29-.28.44-.29,1.72-.02,3.43-.02,5.15,0,.15,0,.3.18.45.28-.15.11-.3.29-.47.32-.29.05-.6.02-.9.02-.94,0-1.31.28-1.57,1.2-.55,1.94-1.09,3.88-1.63,5.82-1.75,6.24-3.5,12.48-5.25,18.72-.04.13-.05.28-.13.37-.13.15-.32.37-.47.36-.18,0-.43-.2-.5-.37-.19-.44-.31-.91-.44-1.38-1.07-3.59-2.13-7.19-3.19-10.78-.04-.14-.09-.27-.19-.55-.37,1.2-.69,2.27-1.02,3.33-.91,3-1.82,5.99-2.74,8.99-.03.1-.04.21-.1.28-.17.18-.38.49-.54.47-.21-.03-.5-.28-.57-.5-.4-1.24-.75-2.49-1.11-3.74-2.09-7.18-4.19-14.36-6.26-21.55-.15-.53-.39-.75-.94-.69-.38.04-.77.04-1.15,0-.18-.03-.34-.21-.52-.32.17-.1.33-.27.5-.28,1.07-.02,2.13-.01,3.2,0,2.92.03,5.83.08,8.75.08,2.72,0,5.43-.06,8.15-.09h.4c.24.01.58-.04.55.31,0,.12-.36.3-.56.3-1.23.06-1.48.24-1.82,1.42-.61,2.08-1.23,4.15-1.81,6.24-.1.36-.11.8,0,1.16,1.03,3.71,2.1,7.4,3.16,11.1.04.13.09.25.13.37h.11Zm-8.57.2c.09-.17.13-.23.14-.29.73-2.54,1.47-5.09,2.19-7.64.05-.17.06-.37,0-.54-1.1-3.84-2.22-7.68-3.32-11.52-.11-.37-.31-.5-.69-.49-.98.02-1.97,0-2.95,0q-1.23,0-.89,1.18c1.13,3.94,2.25,7.88,3.37,11.82.7,2.45,1.4,4.9,2.13,7.47h.01Zm4.67-13.41c.25-.87.47-1.62.69-2.36.33-1.15.67-2.3.98-3.46.22-.84-.07-1.21-.92-1.22h-2.05c-.64,0-.7.07-.52.71.55,1.94,1.09,3.88,1.64,5.82.04.14.09.27.18.52h0Z"/>
    <path class="cls-2" d="m52.2,43.65c.03-3.6.69-6.78,2.61-9.59,1.68-2.46,3.98-4.03,6.98-4.37,2.85-.31,5.37.54,7.47,2.53,2.19,2.08,3.32,4.72,3.83,7.64.66,3.81.45,7.55-1.14,11.12-1.34,3-3.45,5.24-6.73,6.09-4.19,1.1-8.35-.7-10.68-4.5-1.33-2.18-2.01-4.56-2.22-7.09-.06-.7-.09-1.4-.12-1.85v.02Zm4.38-.28c.09,1.75.14,3.49.29,5.23.14,1.7.45,3.37,1.12,4.95.83,1.96,2.22,3.17,4.43,3.27,1.64.08,3.16-.25,4.2-1.61.54-.7.98-1.52,1.29-2.34.92-2.5,1.07-5.15,1.09-7.78.02-2.38-.11-4.76-.29-7.13-.13-1.71-.55-3.38-1.3-4.95-1.76-3.69-6.59-3.34-8.31-1.25-.73.89-1.22,1.9-1.54,3-.82,2.82-.92,5.71-.97,8.62h0Z"/>
    <path class="cls-1" d="m117.66,53.76h-2.74s-.01-.08-.02-.12c.27-.04.55-.08.91-.14-.24-.83-.45-1.64-.72-2.44-.1-.29-1.89-.28-1.99,0-.24.69-.44,1.4-.62,2.11-.02.1.18.29.32.37.13.07.31.05.47.06v.13h-6.81s-.03-.06-.05-.09c.04-.02.09-.06.13-.06.71.09.68-.37.68-.87-.01-2.02-.02-4.03,0-6.05,0-.46-.04-.8-.62-.73-.05,0-.1-.05-.28-.16h2.99s.02.06.02.09c-.15.03-.3.08-.46.08-.3,0-.42.12-.41.42v6.75c0,.33.14.42.45.43,1.82.05,2.22-.29,2.4-2.12.01-.12.04-.24.06-.36h.13c.01.2.04.4.03.6-.01.48-.05.97-.05,1.45,0,.14.14.28.21.42.16-.09.35-.16.46-.29.1-.12.11-.31.16-.47.66-2.2,1.32-4.4,1.98-6.6.05-.18.15-.35.28-.67.14.31.24.47.29.64.64,2.14,1.27,4.28,1.91,6.41.14.48.13,1.11.96,1.04-.03.05-.05.1-.08.14v.03Zm-3.47-5.96s-.09,0-.13,0c-.27.91-.53,1.82-.83,2.82.56,0,1.02,0,1.47,0,.07,0,.21-.22.19-.3-.22-.84-.47-1.68-.71-2.51h0Z"/>
    <path class="cls-1" d="m87.07,53.77h-2.72s-.02-.06-.03-.09c.09-.04.18-.07.26-.1.48-.16.54-.2.53-.6-.02-2,0-4,0-6,0-.57-.25-.96-.75-1.16h2.81c-.1.07-.16.15-.22.14-.54-.05-.62.24-.61.7.03.85.02,1.7,0,2.55,0,.33.3.46.44.44.65,0,1.3-.02,1.95,0,.35,0,.47-.13.47-.47-.01-.87-.02-1.73,0-2.6.01-.4-.07-.65-.54-.61-.07,0-.15-.04-.23-.15h2.72s-.04.11-.06.11c-.68-.02-.68.41-.67.92.02,2,.02,4,0,6,0,.45.02.81.61.75.05,0,.1.06.28.17h-2.88s-.02-.05-.02-.08c.09-.04.18-.11.27-.1.43.04.54-.16.53-.56-.02-.88-.02-1.77,0-2.65,0-.4-.1-.58-.53-.56-.6.03-1.2.03-1.8,0-.43-.02-.54.16-.53.56.02.85.03,1.7,0,2.55-.01.44.06.72.58.67.05,0,.11.05.16.08,0,.04,0,.07-.01.11v-.02Z"/>
    <path class="cls-1" d="m96.65,48.12c-.05-.29-.09-.57-.15-.86-.16-.84-.63-1.24-1.48-1.26-.84-.03-1.26.39-1.26,1.24,0,.65.01,1.3,0,1.95,0,.34.08.48.46.43.75-.1.75-.08,1.27-1.13v2.56c-.19-.36-.29-.79-.55-.99-.27-.2-.71-.17-1.17-.26v3.33c0,.31.1.47.43.46.43-.02.87,0,1.3-.02.77-.05,1.25-.63,1.32-1.56.02-.25.04-.5.17-.73,0,.78,0,1.57-.01,2.35,0,.07-.19.19-.29.19-1.61,0-3.23,0-4.84,0-.03,0-.05-.04-.11-.08.07-.05.14-.12.19-.12.53.06.62-.21.61-.68-.02-2.07-.02-4.13,0-6.2,0-.5-.07-.82-.65-.76-.04,0-.08-.05-.21-.14.22-.03.35-.06.48-.06,1.35,0,2.7,0,4.05-.02.4,0,.58.12.57.54,0,.52.04,1.03.05,1.55,0,.1-.05.2-.07.3h-.09l-.02-.02Z"/>
    <path class="cls-1" d="m132.47,48.49v2.53h-.1c-.02-.08-.05-.15-.06-.23-.1-.72-.63-1.11-1.34-.94-.09.02-.2.21-.2.32-.02,1,0,2,0,3,0,.32.15.4.44.39.33,0,.67,0,1,0,.92,0,1.36-.37,1.54-1.3.07-.33.09-.68.24-1.03.03.11.08.22.08.34-.02.63-.03,1.27-.1,1.89,0,.13-.23.33-.36.33-1.55.02-3.1,0-4.65,0-.07,0-.14-.04-.32-.09.13-.07.17-.11.21-.11.72.09.68-.38.68-.87,0-2.02-.02-4.03,0-6.05,0-.47-.05-.8-.62-.73-.03,0-.07-.02-.09-.04-.02-.02-.03-.05-.07-.12.14-.02.26-.05.38-.05,1.35,0,2.7,0,4.05-.02.41,0,.58.13.58.54,0,.6,0,1.19-.1,1.81-.04-.19-.1-.38-.12-.57-.13-1.07-.6-1.5-1.66-1.51-1.26-.01-1.09-.17-1.1,1.06v2.2c0,.28.09.37.38.36.77,0,1.24-.32,1.19-1.22.05.03.09.06.14.09v.03Z"/>
    <path class="cls-1" d="m103.41,50.72h2.62s-.01.11-.02.11c-.66,0-.7.43-.65.93v.1c-.05.44.06,1.06-.18,1.27-.46.39-1.1.65-1.7.75-1.32.22-2.44-.42-3.04-1.68-.78-1.63-.77-3.29.07-4.9.67-1.3,2.22-2.29,4.01-1.31.11.06.24.1.39.16.08-.13.16-.25.23-.37h.11v2.71l-.07.02c-.05-.27-.07-.56-.16-.82-.15-.42-.27-.87-.52-1.23-.74-1.02-2.22-.9-2.72.25-.26.6-.44,1.28-.46,1.92-.03,1.16.06,2.32.18,3.48.04.4.29.81.54,1.16.32.45.91.57,1.4.38.51-.2.73-.61.77-1.13.02-.2,0-.4,0-.6,0-.61-.27-1.01-.81-1.22v.02Z"/>
    <path class="cls-1" d="m123.51,53.77v-2.72h.12c.05.29.08.57.14.86.18.85.59,1.52,1.48,1.79.85.26,1.63-.2,1.83-1.06.22-.95-.07-1.58-.94-2.02-.51-.25-1.04-.46-1.52-.76-1.03-.62-1.4-1.93-.9-3.02.46-1.02,1.54-1.46,2.69-1.09.24.08.46.18.69.29.29.14.52.16.66-.24v2.52s-.08,0-.12,0c-.04-.21-.08-.41-.12-.62-.16-.83-.54-1.51-1.38-1.82-.69-.25-1.27.02-1.54.69-.38.93-.08,1.71.82,2.16.46.23.94.43,1.39.68,1.17.64,1.6,1.94,1.09,3.18-.45,1.08-1.68,1.59-2.94,1.22-.24-.07-.47-.17-.7-.27-.3-.14-.59-.28-.74.22h-.01Z"/>
    <path class="cls-1" d="m122.29,45.79v2.51s-.09,0-.13.02c-.05-.26-.09-.53-.15-.79-.2-.78-.59-1.41-1.41-1.67-.66-.21-1.24.09-1.49.73-.35.93-.05,1.72.84,2.16.46.23.94.43,1.39.68,1.16.64,1.6,1.94,1.09,3.18-.44,1.05-1.67,1.58-2.9,1.23-.27-.08-.53-.19-.79-.3-.29-.13-.56-.23-.69.22v-2.67s.07,0,.11-.02c.04.21.08.43.11.64.1.97.68,1.74,1.51,1.98.91.27,1.74-.27,1.85-1.21.12-1.03-.11-1.45-1.05-1.91-.45-.22-.92-.4-1.35-.65-.95-.55-1.36-1.49-1.14-2.55.27-1.35,1.46-2.06,2.79-1.65.21.06.41.15.6.24.31.15.61.33.81-.17h0Z"/>
    <path class="cls-1" d="m135.08,51.08c.03.22.06.44.09.67.15.92.56,1.64,1.5,1.94.91.29,1.74-.26,1.86-1.2.13-1.02-.11-1.46-1.04-1.92-.43-.21-.88-.39-1.3-.63-1.06-.6-1.47-1.64-1.15-2.81.32-1.14,1.44-1.76,2.63-1.44.26.07.5.18.74.29.3.13.6.35.78-.18v2.51s-.09,0-.13.02c-.05-.26-.09-.52-.15-.77-.18-.75-.54-1.36-1.3-1.65-.74-.28-1.38.03-1.63.77-.31.94,0,1.65.9,2.09.46.23.94.43,1.39.68,1.14.63,1.56,1.91,1.06,3.15-.42,1.04-1.63,1.58-2.84,1.26-.27-.07-.54-.18-.79-.29-.31-.14-.6-.31-.79.19v-2.24c0-.15.02-.29.03-.44h.14,0Z"/>
    <path class="cls-1" d="m79.47,53.74c.18-.1.23-.14.29-.15.49-.09.73-.37.74-.86,0-2.05-.01-4.1,0-6.15,0-.45-.11-.63-.59-.59-.68.06-1.09.37-1.24,1.08-.07.35-.11.71-.17,1.06h-.17v-.98c.01-.47.13-.82.37-1.05s.59-.35,1.06-.35c1.17,0,2.33.01,3.5,0,.4,0,.58.11.57.53-.02.63,0,1.25,0,1.88-.04,0-.08.02-.12.03-.03-.15-.07-.3-.1-.45-.08-.35-.11-.73-.25-1.06-.23-.54-.82-.82-1.36-.65-.13.04-.26.32-.26.49-.02,1.3-.01,2.6-.01,3.9,0,.83.02,1.67,0,2.5-.02.47.09.75.62.68.07,0,.15.04.22.16h-3.09v-.02Z"/>
  </g>
</svg>