<?xml version="1.0" encoding="utf-8"?>
<!-- Generator: Adobe Illustrator 27.2.0, SVG Export Plug-In . SVG Version: 6.00 Build 0)  -->
<svg version="1.1" id="레이어_1" xmlns="http://www.w3.org/2000/svg" xmlns:xlink="http://www.w3.org/1999/xlink" x="0px"
	 y="0px" viewBox="0 0 1080 1080" style="enable-background:new 0 0 1080 1080;" xml:space="preserve">
<style type="text/css">
	.st0{fill:#FFFFFF;}
</style>
<polygon class="st0" points="646.5,270 540,323.4 433.5,270 540,472.4 "/>
<path class="st0" d="M683.7,426.5l-1.6-1.5l75.9-31.9V286.2l-132,56.3c0,0-71.4,135.4-73.1,138.6c60.9,7.2,104.4,62.3,97.3,123.2
	c-7.2,60.9-62.3,104.4-123.2,97.3s-104.4-62.3-97.3-123.2c6-51,46.2-91.3,97.3-97.3c-1.6-3.1-73-138.6-73-138.6l-131.8-56.3v106.9
	l75.9,32l-1.6,1.4c-91,79.3-100.5,217.4-21.2,308.4s217.4,100.5,308.4,21.2S784.3,538.7,705,447.6c-6.6-7.5-13.6-14.6-21.2-21.2
	L683.7,426.5z"/>
</svg>
