<?xml version="1.0" encoding="utf-8"?>
<!-- Generator: Adobe Illustrator 27.2.0, SVG Export Plug-In . SVG Version: 6.00 Build 0)  -->
<svg version="1.1" id="레이어_1" xmlns="http://www.w3.org/2000/svg" xmlns:xlink="http://www.w3.org/1999/xlink" x="0px"
	 y="0px" viewBox="0 0 1080 1080" style="enable-background:new 0 0 1080 1080;" xml:space="preserve">
<style type="text/css">
	.st0{fill:#FFFFFF;}
</style>
<path class="st0" d="M525.3,216C346.4,224.1,208,375.7,216.1,554.6S375.8,872,554.7,863.9S872,704.2,863.9,525.3l0,0
	C855.8,346.4,704.2,208,525.4,216.1h-0.1L525.3,216L525.3,216z M558.3,532c51.1,47.1,97.7,90.3,97.7,90.3
	c69.9,75.5,30.5,131.7,11,146.5c-29.4,22.3-60,29.6-98.1,31.7c-3.4,0.5-9.7-1.5-10-7.5c-0.2-6.5,9.2-8.1,9.2-8.1
	C653.1,768,626,712,596,683.6c-12.7-12-128.7-113.7-128.7-113.7C354.6,472.8,363.5,397,363.5,397c7.3-95.3,87.1-116.4,148.9-111.1
	c7.2,0.6,11.2,5,10,11.1c-1.4,6.5-11,7-11,7c-19.7,1.2-37.2,3.2-50.6,12.2c-49.7,33.5-35,90.4,31.3,153.9c8.4,8,17.3,16.4,26.3,24.9
	C518.4,495.1,531.8,506.8,558.3,532L558.3,532z M519.8,773.2c0.5,9.1-21.6,13.1-46.9,10.6c-31.7-3.1-69.6-13.2-102.6-41.7
	c-30.3-26.2-49.1-62.3-58.2-94c-9.4-32.4-13.2-70.4,2.2-67.4c4.8,0.9,13,21.8,21.9,37c9.2,15.7,16.7,24.3,23.8,29.6
	c3.1,2.4,14-21.7,29.7-35.4c9.1-7.5,19.1-10.2,20.8,12.4c2,27.7-3,60.5,5.1,60.5c7.6,0,24.6-5.7,61.9-8.9c14-1.2,22.1,1.5,8.6,20.4
	c-9.8,14.8-22.2,27.7-36.8,37.9C481,764,519.1,760.4,519.8,773.2z M544.8,483.7c-2.4-9.3-2.9-21-1-36.1c4-31.3,12.4-46,22-70.4
	c13-32.6-18.6-51.7-13.3-63.8c7.1-16.3,29.6,4.3,54.8,5.9c21.6,1.2,34.6,0,51.4,2.3c22.3,3,49.1,10.6,61,24.5
	c10.9,12.8-5.7,28.4-25.8,18.6c-14.7-7.1-33.1-2.7-22.3,12.5c13,14.5,19.5,14.4,36.2,20.1c35.8,12.2,34.6,43.4,8.9,60.5
	c-31,20.5-56.6,12.6-68-27.8c-5.7-20.2-20-30.5-34.6-24.7s-5.9,32.3,5.1,56.9c22.1,56.4-32.8,54.5-39.2,53.7
	C563,512.9,549.4,500.4,544.8,483.7z"/>
</svg>
