<?xml version="1.0" encoding="utf-8"?>
<!-- Generator: Adobe Illustrator 27.2.0, SVG Export Plug-In . SVG Version: 6.00 Build 0)  -->
<svg version="1.1" id="레이어_1" xmlns="http://www.w3.org/2000/svg" xmlns:xlink="http://www.w3.org/1999/xlink" x="0px"
	 y="0px" viewBox="0 0 1080 1080" style="enable-background:new 0 0 1080 1080;" xml:space="preserve">
<style type="text/css">
	.st0{fill:#FFFFFF;}
</style>
<path class="st0" d="M836.8,670C808.1,575.6,686.1,495.7,540,495.7s-268.1,79.8-296.8,174.1c0.2,0.5,0.4,1,0.6,1.5l0.3,0.5
	c84.2-31.5,186.1-50.1,295.9-50.1s211.7,18.6,295.9,50.1C836.2,671.2,836.5,670.7,836.8,670c-71.9,163.9-263,238.5-426.8,166.7
	c-74.1-32.5-133.3-91.5-166.1-165.4l-0.7-1.4v-0.1c-36.3-82.8-36.3-176.9,0.1-259.6C315,246.2,506,171.5,669.9,243.3
	S908.5,506.1,836.8,670z"/>
</svg>
